<svg width="41" height="41" viewBox="0 0 41 41" fill="none" xmlns="http://www.w3.org/2000/svg">
<g id="Oval" filter="url(#filter0_d)">
<path d="M20.5 34C28.5081 34 35 27.5081 35 19.5C35 11.4919 28.5081 5 20.5 5C12.4919 5 6 11.4919 6 19.5C6 27.5081 12.4919 34 20.5 34Z" fill="#FFCC11"/>
<path d="M20.5 34C28.5081 34 35 27.5081 35 19.5C35 11.4919 28.5081 5 20.5 5C12.4919 5 6 11.4919 6 19.5C6 27.5081 12.4919 34 20.5 34Z" fill="url(#paint0_radial)" style="mix-blend-mode:overlay"/>
</g>
<defs>
<filter id="filter0_d" x="0" y="0" width="41" height="41" filterUnits="userSpaceOnUse" color-interpolation-filters="sRGB">
<feFlood flood-opacity="0" result="BackgroundImageFix"/>
<feColorMatrix in="SourceAlpha" type="matrix" values="0 0 0 0 0 0 0 0 0 0 0 0 0 0 0 0 0 0 127 0"/>
<feOffset dy="1"/>
<feGaussianBlur stdDeviation="3"/>
<feColorMatrix type="matrix" values="0 0 0 0 0 0 0 0 0 0 0 0 0 0 0 0 0 0 0.0748132 0"/>
<feBlend mode="normal" in2="BackgroundImageFix" result="effect1_dropShadow"/>
<feBlend mode="normal" in="SourceGraphic" in2="effect1_dropShadow" result="shape"/>
</filter>
<radialGradient id="paint0_radial" cx="0" cy="0" r="1" gradientUnits="userSpaceOnUse" gradientTransform="translate(20.5 5) rotate(90) scale(28.0525)">
<stop stop-color="white" stop-opacity="0.286373"/>
<stop offset="1" stop-opacity="0.297837"/>
</radialGradient>
</defs>
</svg>
