<svg width="60" height="75" viewBox="0 0 60 75" fill="none" xmlns="http://www.w3.org/2000/svg">
<path fill-rule="evenodd" clip-rule="evenodd" d="M1.50037 0C0.671936 0 0.000366211 0.671631 0.000366211 1.5V33.5V65.5C0.000366211 65.7961 0.0880127 66.0857 0.252319 66.332L5.25226 73.832C5.53046 74.2494 5.99884 74.5 6.50037 74.5H58.0004C58.8287 74.5 59.5004 73.8284 59.5004 73V6.5C59.5004 5.67163 58.8287 5 58.0004 5C57.172 5 56.5004 5.67163 56.5004 6.5V71.5H7.3031L4.30316 67H51.0004C51.8287 67 52.5004 66.3284 52.5004 65.5V33.5V1.5C52.5004 0.671631 51.8287 0 51.0004 0H1.50037ZM3.00037 35V64H49.5004V35H41.9287C41.1743 42.8566 34.5547 49 26.5004 49C18.446 49 11.8265 42.8566 11.072 35H3.00037ZM14.0004 33.5C14.0004 40.4036 19.5968 46 26.5004 46C33.4039 46 39.0004 40.4036 39.0004 33.5C39.0004 26.5964 33.4039 21 26.5004 21C19.5968 21 14.0004 26.5964 14.0004 33.5ZM41.9287 32C41.1743 24.1434 34.5547 18 26.5004 18C18.446 18 11.8265 24.1434 11.072 32H3.00037V26.9165L6.62189 28.4165C7.38721 28.7335 8.26465 28.3701 8.58173 27.6047C8.89874 26.8394 8.53528 25.9619 7.7699 25.6449L4.0744 24.1141C3.71808 23.9666 3.3374 23.9666 3.00037 24.0858V14.1213L10.6321 21.7531C11.2179 22.3389 12.1676 22.3389 12.7534 21.7531C13.3392 21.1672 13.3392 20.2175 12.7534 19.6317L3.56104 10.4393C3.39728 10.2756 3.20508 10.1577 3.00037 10.0854V3H25.0858C25.0494 3.10278 25.024 3.21069 25.0108 3.32239C25.0039 3.38062 25.0004 3.43994 25.0004 3.5V13.5C25.0004 14.3284 25.6719 15 26.5004 15C27.3288 15 28.0004 14.3284 28.0004 13.5V3.5C28.0004 3.32471 27.9703 3.15637 27.915 3H49.5004V10.3387C49.4622 10.3701 49.425 10.4037 49.3894 10.4393L40.197 19.6317C39.6113 20.2175 39.6113 21.1672 40.197 21.7531C40.7828 22.3389 41.7325 22.3389 42.3184 21.7531L49.5004 14.571V24.031C49.2157 23.9717 48.9108 23.9945 48.6219 24.1141L44.9264 25.6449C44.161 25.9619 43.7975 26.8394 44.1146 27.6047C44.4316 28.3701 45.3091 28.7335 46.0744 28.4165L49.5004 26.9976V32H41.9287ZM20.0004 33.5C20.0004 29.9102 22.9105 27 26.5004 27C30.0902 27 33.0004 29.9102 33.0004 33.5C33.0004 37.0898 30.0902 40 26.5004 40C22.9105 40 20.0004 37.0898 20.0004 33.5ZM26.5004 24C21.2537 24 17.0004 28.2533 17.0004 33.5C17.0004 38.7467 21.2537 43 26.5004 43C31.7471 43 36.0004 38.7467 36.0004 33.5C36.0004 28.2533 31.7471 24 26.5004 24ZM9.00037 51.5C9.00037 50.6716 8.3288 50 7.50037 50C6.67194 50 6.00037 50.6716 6.00037 51.5V60.5C6.00037 61.3284 6.67194 62 7.50037 62C8.3288 62 9.00037 61.3284 9.00037 60.5V51.5ZM13.5004 47C14.3288 47 15.0004 47.6716 15.0004 48.5V55.5C15.0004 56.3284 14.3288 57 13.5004 57C12.6719 57 12.0004 56.3284 12.0004 55.5V48.5C12.0004 47.6716 12.6719 47 13.5004 47ZM21.0004 53.5C21.0004 52.6716 20.3288 52 19.5004 52C18.6719 52 18.0004 52.6716 18.0004 53.5V60.5C18.0004 61.3284 18.6719 62 19.5004 62C20.3288 62 21.0004 61.3284 21.0004 60.5V53.5ZM45.5004 50C46.3288 50 47.0004 50.6716 47.0004 51.5V60.5C47.0004 61.3284 46.3288 62 45.5004 62C44.6719 62 44.0004 61.3284 44.0004 60.5V51.5C44.0004 50.6716 44.6719 50 45.5004 50ZM9.00037 40.5C9.00037 39.6716 8.3288 39 7.50037 39C6.67194 39 6.00037 39.6716 6.00037 40.5V46.5C6.00037 47.3284 6.67194 48 7.50037 48C8.3288 48 9.00037 47.3284 9.00037 46.5V40.5ZM45.5004 39C46.3288 39 47.0004 39.6716 47.0004 40.5V46.5C47.0004 47.3284 46.3288 48 45.5004 48C44.6719 48 44.0004 47.3284 44.0004 46.5V40.5C44.0004 39.6716 44.6719 39 45.5004 39ZM41.0004 48.5C41.0004 47.6716 40.3288 47 39.5004 47C38.6719 47 38.0004 47.6716 38.0004 48.5V55.5C38.0004 56.3284 38.6719 57 39.5004 57C40.3288 57 41.0004 56.3284 41.0004 55.5V48.5ZM13.5004 58C14.3288 58 15.0004 58.6716 15.0004 59.5V60.5C15.0004 61.3284 14.3288 62 13.5004 62C12.6719 62 12.0004 61.3284 12.0004 60.5V59.5C12.0004 58.6716 12.6719 58 13.5004 58ZM41.0004 59.5C41.0004 58.6716 40.3288 58 39.5004 58C38.6719 58 38.0004 58.6716 38.0004 59.5V60.5C38.0004 61.3284 38.6719 62 39.5004 62C40.3288 62 41.0004 61.3284 41.0004 60.5V59.5ZM26.5004 53C27.3288 53 28.0004 53.6716 28.0004 54.5V55.5C28.0004 56.3284 27.3288 57 26.5004 57C25.6719 57 25.0004 56.3284 25.0004 55.5V54.5C25.0004 53.6716 25.6719 53 26.5004 53ZM35.0004 53.5C35.0004 52.6716 34.3288 52 33.5004 52C32.6719 52 32.0004 52.6716 32.0004 53.5V60.5C32.0004 61.3284 32.6719 62 33.5004 62C34.3288 62 35.0004 61.3284 35.0004 60.5V53.5ZM26.5004 58C27.3288 58 28.0004 58.6716 28.0004 59.5V60.5C28.0004 61.3284 27.3288 62 26.5004 62C25.6719 62 25.0004 61.3284 25.0004 60.5V59.5C25.0004 58.6716 25.6719 58 26.5004 58ZM17.8862 9.92603C17.5692 9.16064 16.6917 8.79712 15.9263 9.11414C15.1609 9.43115 14.7975 10.3087 15.1146 11.074L17.028 15.6935C17.345 16.4587 18.2224 16.8223 18.9878 16.5052C19.7532 16.1882 20.1166 15.3108 19.7996 14.5454L17.8862 9.92603ZM35.028 9.92603C35.345 9.16064 36.2225 8.79712 36.9879 9.11414C37.7532 9.43115 38.1166 10.3087 37.7996 11.074L35.8862 15.6935C35.5692 16.4587 34.6918 16.8223 33.9264 16.5052C33.161 16.1882 32.7975 15.3108 33.1146 14.5454L35.028 9.92603ZM30.0004 33.5C30.0004 34.3284 29.3288 35 28.5004 35H28.0004V35.5C28.0004 36.3284 27.3288 37 26.5004 37C25.6719 37 25.0004 36.3284 25.0004 35.5V35H24.5004C23.6719 35 23.0004 34.3284 23.0004 33.5C23.0004 32.6716 23.6719 32 24.5004 32H25.0004V31.5C25.0004 30.6716 25.6719 30 26.5004 30C27.3288 30 28.0004 30.6716 28.0004 31.5V32H28.5004C29.3288 32 30.0004 32.6716 30.0004 33.5Z" fill="#BFB391"/>
</svg>
