<svg width="18" height="19" viewBox="0 0 18 19" fill="none" xmlns="http://www.w3.org/2000/svg">
<path d="M2 12L16 17" stroke="#BA9D4C" stroke-width="3" stroke-linecap="round"/>
<path d="M16 12L2 17" stroke="#BA9D4C" stroke-width="3" stroke-linecap="round"/>
<path fill-rule="evenodd" clip-rule="evenodd" d="M12.3426 5.66667C10.8871 3.58751 10.0714 1 10.0714 1C10.0714 1 7.57143 4 7.92857 6C7.21429 5 6.85714 4.66667 6.14286 4C5.07143 6 4.65989 6.58932 4.30275 7.58932C4 8.35144 4 8.7624 4 9.33333C4 11.9107 6.23857 14 9 14C11.7614 14 14 11.9107 14 9.33333C14 8.7624 13.7546 8.0682 13.3726 7.33333" fill="#E86820" stroke="#E86820" stroke-width="1.53846" stroke-linecap="round" stroke-linejoin="round"/>
</svg>
