<svg width="44" height="44" viewBox="0 0 44 44" fill="none" xmlns="http://www.w3.org/2000/svg">
<path fill-rule="evenodd" clip-rule="evenodd" d="M26.6797 20C24.642 16.8813 23.5 13 23.5 13C23.5 13 20 17.5 20.5 20.5C19.5 19 19 18.5 18 17.5C16.5 20.5 15.9238 21.384 15.4238 22.884C15 24.0272 15 24.6436 15 25.5C15 29.366 18.134 32.5 22 32.5C25.866 32.5 29 29.366 29 25.5C29 24.6436 28.6565 23.6023 28.1217 22.5" fill="#E86820"/>
<path d="M26.6797 20C24.642 16.8813 23.5 13 23.5 13C23.5 13 20 17.5 20.5 20.5C19.5 19 19 18.5 18 17.5C16.5 20.5 15.9238 21.384 15.4238 22.884C15 24.0272 15 24.6436 15 25.5C15 29.366 18.134 32.5 22 32.5C25.866 32.5 29 29.366 29 25.5C29 24.6436 28.6565 23.6023 28.1217 22.5" stroke="#E86820" stroke-width="2" stroke-linecap="round" stroke-linejoin="round"/>
<path fill-rule="evenodd" clip-rule="evenodd" d="M26.6797 20C27.2241 20.8332 27.7254 21.6833 28.1217 22.5L26.6797 20Z" fill="#E86820"/>
<path d="M26.6797 20C27.2241 20.8332 27.7254 21.6833 28.1217 22.5" stroke="#E86820" stroke-width="2" stroke-linecap="round" stroke-linejoin="round"/>
<path fill-rule="evenodd" clip-rule="evenodd" d="M26.6797 20L28.1217 22.5L26.6797 20Z" fill="#E86820"/>
<path d="M26.6797 20L28.1217 22.5" stroke="#E86820" stroke-width="2" stroke-linecap="round" stroke-linejoin="round"/>
</svg>
