<svg width="44" height="44" viewBox="0 0 44 44" fill="none" xmlns="http://www.w3.org/2000/svg">
<path fill-rule="evenodd" clip-rule="evenodd" d="M16 12H28C30.2091 12 32 13.7909 32 16V28C32 30.2091 30.2091 32 28 32H16C13.7909 32 12 30.2091 12 28V16C12 13.7909 13.7909 12 16 12ZM21 15.5V18.5H23V15.5H21ZM27.1292 17.884L24.5311 19.384L25.5311 21.116L28.1292 19.616L27.1292 17.884ZM28.1292 24.384L25.5311 22.884L24.5311 24.616L27.1292 26.116L28.1292 24.384ZM23 28.5V25.5H21V28.5H23ZM16.8708 26.116L19.4689 24.616L18.4689 22.884L15.8708 24.384L16.8708 26.116ZM15.8708 19.616L18.4689 21.116L19.4689 19.384L16.8708 17.884L15.8708 19.616Z" fill="#C0E820"/>
</svg>
