<svg width="44" height="44" viewBox="0 0 44 44" fill="none" xmlns="http://www.w3.org/2000/svg">
<path d="M22 10.8235C15.8529 10.8235 10.8235 15.8292 10.8235 22.0568C10.8235 28.2843 15.8529 33.1765 22 33.1765C28.1471 33.1765 33.1765 28.1725 33.1765 22.0568C33.1765 15.941 28.2588 10.8235 22 10.8235ZM21.105 13.1592C22.3344 13.8265 23.4525 14.7169 24.3466 15.8289C24.7937 15.6065 25.3529 15.3836 25.9118 15.3836C27.4765 15.3836 28.7059 16.6078 28.7059 18.1646C28.7059 19.4991 27.7004 20.7232 26.3593 20.9457C26.3593 21.2798 26.4706 21.7237 26.4706 22.0568C26.4706 25.9473 24.2344 29.2834 21.105 30.9521C16.6344 30.5073 13.0588 26.7274 13.0588 22.0568C13.0588 17.3861 16.5227 13.7147 21.105 13.1592ZM16.9706 16.4118C16.526 16.4118 16.0995 16.5884 15.7851 16.9028C15.4707 17.2172 15.2941 17.6436 15.2941 18.0882C15.2941 18.5329 15.4707 18.9593 15.7851 19.2737C16.0995 19.5881 16.526 19.7647 16.9706 19.7647C17.4152 19.7647 17.8416 19.5881 18.156 19.2737C18.4704 18.9593 18.6471 18.5329 18.6471 18.0882C18.6471 17.6436 18.4704 17.2172 18.156 16.9028C17.8416 16.5884 17.4152 16.4118 16.9706 16.4118V16.4118ZM19.2059 22C18.4648 22 17.7541 22.2944 17.2301 22.8184C16.7061 23.3424 16.4118 24.0531 16.4118 24.7941C16.4118 25.5352 16.7061 26.2459 17.2301 26.7699C17.7541 27.2939 18.4648 27.5882 19.2059 27.5882C19.5728 27.5882 19.9361 27.516 20.2751 27.3755C20.6141 27.2351 20.9222 27.0293 21.1816 26.7699C21.4411 26.5104 21.6469 26.2024 21.7873 25.8634C21.9277 25.5244 22 25.1611 22 24.7941C22 24.4272 21.9277 24.0639 21.7873 23.7249C21.6469 23.3859 21.4411 23.0778 21.1816 22.8184C20.9222 22.5589 20.6141 22.3531 20.2751 22.2127C19.9361 22.0723 19.5728 22 19.2059 22V22ZM28.7059 25.3922C29.3765 25.3922 29.8235 25.8361 29.8235 26.5033C29.8235 27.1706 29.3765 27.6166 28.7059 27.6166C28.0353 27.6166 27.5882 27.1706 27.5882 26.5033C27.5882 25.8361 28.0353 25.3922 28.7059 25.3922Z" fill="#5DB6BC"/>
</svg>
