<svg width="44" height="44" viewBox="0 0 44 44" fill="none" xmlns="http://www.w3.org/2000/svg">
<path d="M14 15.5L24.816 17.2306C25.7862 17.3858 26.5 18.2228 26.5 19.2054V30.1546C26.5 31.3852 25.3992 32.3239 24.184 32.1294L14 30.5V14.1289C14 12.9753 14.9734 12.0608 16.1248 12.1328L28.1248 12.8828C29.1788 12.9487 30 13.8228 30 14.8789V29" stroke="#20B8E8" stroke-width="2" stroke-linecap="round" stroke-linejoin="round"/>
<path d="M14 15.5L24.816 17.2306C25.7862 17.3858 26.5 18.2228 26.5 19.2054V30.1546C26.5 31.3852 25.3992 32.3239 24.184 32.1294L14 30.5V14.1289C14 12.9753 14.9734 12.0608 16.1248 12.1328L28.1248 12.8828C29.1788 12.9487 30 13.8228 30 14.8789V29" stroke="#20B8E8" stroke-width="2" stroke-linecap="round" stroke-linejoin="round"/>
<path fill-rule="evenodd" clip-rule="evenodd" d="M24.816 17.2306L14 15.5V30.5L24.184 32.1294C25.3992 32.3239 26.5 31.3852 26.5 30.1546V19.2054C26.5 18.2228 25.7862 17.3858 24.816 17.2306Z" fill="#20B8E8"/>
</svg>
