<svg width="17" height="17" viewBox="0 0 17 17" fill="none" xmlns="http://www.w3.org/2000/svg">
<path d="M16.5665 7.45221L9.54723 0.43241C8.97073 -0.143364 8.03101 -0.144909 7.4522 0.43241L0.432955 7.45221C-0.144318 8.0303 -0.144318 8.96931 0.432955 9.5474L7.4522 16.5672C7.74122 16.8555 8.11988 17 8.49932 17C8.87876 17 9.2582 16.8555 9.54723 16.5664L16.5665 9.54663C17.1445 8.97009 17.1445 8.0303 16.5665 7.45221ZM12.1376 9.0466L9.81925 11.3651L8.72652 10.2723L9.72574 9.27304H6.95452V10.8187H5.40894V8.50019C5.40894 8.07358 5.75515 7.72734 6.18173 7.72734H9.72574L8.72652 6.72805L9.81925 5.63524L12.1376 7.95379C12.4398 8.25597 12.4398 8.74441 12.1376 9.0466Z" fill="#5C5C5C"/>
</svg>
