<svg width="44" height="44" viewBox="0 0 44 44" fill="none" xmlns="http://www.w3.org/2000/svg">
<path fill-rule="evenodd" clip-rule="evenodd" d="M21 10H23V13H21V10ZM29 22C29 25.866 25.866 29 22 29C18.134 29 15 25.866 15 22C15 18.134 18.134 15 22 15C25.866 15 29 18.134 29 22ZM23 34V31H21V34H23ZM34 23H31V21H34V23ZM13 23V21H10V23H13ZM31.1924 29.7782L29.7782 31.1924L27.6569 29.0711L29.0711 27.6569L31.1924 29.7782ZM14.9289 16.3431L16.3431 14.9289L14.2218 12.8076L12.8076 14.2218L14.9289 16.3431ZM14.2218 31.1924L12.8076 29.7782L14.9289 27.6569L16.3431 29.0711L14.2218 31.1924ZM27.6569 14.9289L29.0711 16.3431L31.1924 14.2218L29.7782 12.8076L27.6569 14.9289Z" fill="#FFCC11"/>
</svg>
