<svg width="44" height="44" viewBox="0 0 44 44" fill="none" xmlns="http://www.w3.org/2000/svg">
<path fill-rule="evenodd" clip-rule="evenodd" d="M12.1853 29.8814C13.2253 29.5093 15.0044 28.6042 16.1613 27.9153L12.1853 29.8814ZM16.1613 27.9153C20.648 25.2436 24.8893 20.5256 26.498 12.6814C31.0547 16.7576 18.3938 30.2091 16.1613 27.9153Z" stroke="#A09A68" stroke-width="1.67871" stroke-linecap="round" stroke-linejoin="round"/>
<path d="M12.468 30.6717C11.4735 31.0275 10.8664 29.5972 11.8132 29.129L15.7893 27.1629C16.7542 26.6858 17.5156 28.0858 16.5908 28.6365C15.3003 29.4049 13.504 30.3011 12.468 30.6717ZM11.9025 29.0911L12.5573 30.6338L16.5334 28.6677L15.7319 27.1941C14.527 27.9116 12.8224 28.762 11.9025 29.0911ZM31.1557 22.5347C29.6167 22.6887 28.4835 22.2866 28.2728 22.1853L27.7272 23.3199C28.074 23.4866 29.2417 23.8886 30.8144 23.8211C30.5428 24.6435 30.1674 25.4706 29.6856 26.2978C29.3791 26.2861 29.0689 26.2439 28.7687 26.1826C28.0233 26.0305 27.4249 25.7784 27.2626 25.7039L26.7374 26.8481C26.9565 26.9487 27.6491 27.2391 28.5169 27.4163C28.6455 27.4425 28.78 27.4667 28.9191 27.4875C28.6191 27.9117 28.2908 28.3354 27.9339 28.758C27.6911 29.0021 27.4478 29.2296 27.2042 29.4411C26.8602 29.386 26.5754 29.2194 26.3289 29.0097C26.1521 28.8593 26.0015 28.6913 25.8701 28.5323C25.8014 28.4492 25.7485 28.3817 25.6875 28.3064C25.6364 28.2432 25.5681 28.1597 25.4987 28.0926L24.6235 28.9977C24.6232 28.9974 24.6302 29.0043 24.6471 29.0239C24.6633 29.0426 24.6831 29.0666 24.7086 29.0982C24.7553 29.1558 24.8266 29.246 24.8997 29.3345C25.0521 29.5189 25.2561 29.75 25.5131 29.9686C25.6652 30.0981 25.8379 30.2246 26.0315 30.3357C22.3479 32.7658 18.6597 31.6858 15.5598 28.5007C15.1815 28.1119 15.2658 27.4717 15.7319 27.1941C20.7219 24.2227 24.2702 19.3663 25.6758 12.5127C25.8059 11.8783 26.5749 11.624 27.0576 12.0558C30.466 15.1048 31.9152 18.7452 31.1557 22.5347ZM28.2728 22.1853C27.9595 22.0346 27.5833 22.1664 27.4327 22.4798C27.282 22.7931 27.4139 23.1692 27.7272 23.3199L28.2728 22.1853ZM27.2626 25.7039C26.9466 25.5589 26.5729 25.6974 26.4279 26.0134C26.2829 26.3294 26.4214 26.7031 26.7374 26.8481L27.2626 25.7039ZM25.4987 28.0926C25.2487 27.8509 24.8502 27.8576 24.6085 28.1075C24.3669 28.3575 24.3735 28.756 24.6235 28.9977L25.4987 28.0926Z" fill="#A09A68"/>
</svg>
